<svg width="89" height="32" viewBox="0 0 89 32" fill="none" xmlns="http://www.w3.org/2000/svg">
<path d="M6.74555 20.215H8.26351V11.785H6.74555V20.215ZM10.1894 13.3065H15.2272V11.7944H10.1894V13.3065ZM10.1894 16.756H15.2272V15.2439H10.1894V16.756ZM22.1813 11.7944H17.191V13.3065H20.6634V20.215H22.1813V11.7944ZM24.1452 13.3065H25.6631V11.7944H24.1452V13.3065ZM16.0905 5.17521e-06C19.2644 0.0130777 22.3632 0.962552 24.9959 2.72858C27.6285 4.49461 29.6768 6.99801 30.8824 9.92276C32.0879 12.8475 32.3965 16.0625 31.7693 19.1618C31.142 22.2611 29.6071 25.1059 27.3581 27.3369C25.1092 29.5679 22.2472 31.0852 19.1333 31.6972C16.0194 32.3092 12.7933 31.9885 9.86221 30.7756C6.93115 29.5627 4.42652 27.5119 2.66454 24.8822C0.902546 22.2525 -0.0378147 19.1617 -0.0378418 16C-0.0378599 13.8933 0.379781 11.8073 1.19112 9.86173C2.00246 7.91619 3.19152 6.14942 4.69005 4.66282C6.18858 3.17621 7.96708 1.99905 9.92347 1.19888C11.8799 0.398701 13.9756 -0.00870545 16.0905 5.17521e-06Z" fill="white"/>
<path d="M42.7211 18.9959L43.6699 18.8636V13.3349H42.2657L42.0665 14.6108C42.0665 14.7242 41.9622 14.8092 41.7914 14.8754C41.6138 14.9334 41.428 14.9621 41.2411 14.9604C40.7857 14.9604 40.5675 14.8659 40.5675 14.658V11.7566H48.9638V14.658C48.9638 14.8659 48.7361 14.9604 48.2807 14.9604C48.0939 14.9614 47.9081 14.9327 47.7304 14.8754C47.5691 14.8092 47.4743 14.7242 47.4553 14.6108L47.2561 13.3349H45.8519V18.8636L46.8007 18.9959C46.8629 19.006 46.9209 19.0337 46.968 19.0755C47.015 19.1174 47.0491 19.1717 47.0663 19.2321C47.1331 19.3872 47.1654 19.5549 47.1612 19.7236C47.1612 20.1489 47.0663 20.3568 46.8671 20.3568H42.6547C42.446 20.3568 42.3416 20.1583 42.3416 19.7425C42.3363 19.5706 42.3687 19.3997 42.4365 19.2416C42.4546 19.1773 42.4912 19.1198 42.5418 19.0761C42.5924 19.0324 42.6547 19.0045 42.7211 18.9959Z" fill="white"/>
<path d="M50.4058 18.9959L51.1933 18.8636V13.2593L50.2445 13.1175C50.1811 13.1066 50.1223 13.0776 50.0751 13.034C50.0279 12.9904 49.9945 12.934 49.9789 12.8718C49.9111 12.7137 49.8787 12.5428 49.884 12.3709C49.884 11.9646 49.9884 11.7566 50.1971 11.7566H57.3979V14.4406C57.3979 14.6391 57.1797 14.743 56.7433 14.743C56.5494 14.7455 56.3567 14.7135 56.1741 14.6486C55.9843 14.5919 55.88 14.5068 55.8705 14.3839L55.6902 13.3349H53.3753V15.3479H55.3866C55.491 15.3479 55.5764 15.4235 55.6428 15.5842C55.7026 15.7639 55.7314 15.9524 55.7282 16.1418C55.7322 16.3311 55.7033 16.5198 55.6428 16.6993C55.5795 16.8506 55.4942 16.9262 55.3866 16.9262H53.3753V18.8636L54.3241 18.9959C54.3863 19.006 54.4443 19.0337 54.4914 19.0755C54.5384 19.1174 54.5725 19.1717 54.5897 19.2321C54.6565 19.3872 54.6888 19.5549 54.6846 19.7236C54.6846 20.1489 54.5897 20.3568 54.3905 20.3568H50.3963C50.1876 20.3568 50.0833 20.1583 50.0833 19.7425C50.0779 19.5706 50.1103 19.3997 50.1781 19.2416C50.1916 19.1846 50.2197 19.132 50.2596 19.0889C50.2995 19.0459 50.3498 19.0138 50.4058 18.9959Z" fill="white"/>
<path d="M58.0431 19.6858C57.4174 19.0574 57.0663 18.2082 57.0663 17.3231C57.0663 16.438 57.4174 15.5888 58.0431 14.9604C58.7523 14.4148 59.6231 14.1188 60.5193 14.1188C61.4154 14.1188 62.2862 14.4148 62.9954 14.9604C63.6211 15.5888 63.9722 16.438 63.9722 17.3231C63.9722 18.2082 63.6211 19.0574 62.9954 19.6858C62.2836 20.2254 61.4138 20.5175 60.5193 20.5175C59.6248 20.5175 58.7549 20.2254 58.0431 19.6858ZM59.561 18.5422C59.6644 18.6982 59.8054 18.8258 59.9712 18.9134C60.137 19.0009 60.3222 19.0455 60.5098 19.0431C60.6972 19.0447 60.8821 18.9997 61.0477 18.9122C61.2134 18.8248 61.3545 18.6976 61.4585 18.5422C61.696 18.1838 61.8184 17.7619 61.8095 17.3326C61.8179 16.9003 61.6956 16.4755 61.4585 16.1134C61.3545 15.958 61.2134 15.8309 61.0477 15.7434C60.8821 15.656 60.6972 15.611 60.5098 15.6125C60.3222 15.6101 60.137 15.6548 59.9712 15.7423C59.8054 15.8298 59.6644 15.9574 59.561 16.1134C59.3194 16.4735 59.1967 16.8997 59.21 17.3326C59.2066 17.7464 59.329 18.1517 59.561 18.495V18.5422Z" fill="white"/>
<path d="M65.1206 18.9959L65.8131 18.8636V15.7354L64.8644 15.5936C64.7982 15.5815 64.7363 15.5525 64.6848 15.5094C64.6333 15.4664 64.5938 15.4107 64.5703 15.3479C64.495 15.1953 64.4591 15.0264 64.4659 14.8565C64.4659 14.4218 64.5703 14.2044 64.779 14.2044H66.9326C67.5493 14.2044 67.8814 14.4785 67.8814 15.0266C68.1247 14.7274 68.433 14.4869 68.783 14.3232C69.1329 14.1595 69.5156 14.0769 69.9021 14.0815C70.2212 14.0817 70.5394 14.1165 70.8509 14.1855C70.9409 14.3841 70.9832 14.6009 70.9742 14.8187C70.995 15.0297 70.9683 15.2426 70.8961 15.4421C70.8239 15.6415 70.708 15.8224 70.5568 15.9717L69.4562 15.7259C69.0663 15.6995 68.6764 15.7778 68.3273 15.9527C68.0806 16.104 67.9572 16.4442 67.9572 16.9545V18.8446L68.7447 18.977C68.8057 18.9901 68.8623 19.0187 68.9088 19.0601C68.9554 19.1016 68.9904 19.1543 69.0103 19.2132C69.0694 19.3703 69.0983 19.537 69.0957 19.7047C69.0957 20.1299 69.0008 20.3379 68.8016 20.3379H65.1206C64.9118 20.3379 64.8075 20.1394 64.8075 19.7236C64.8075 19.3078 64.8834 19.0431 65.1206 18.9959Z" fill="white"/>
<path d="M72.6914 18.2871V15.6125H71.7427C71.6383 15.6125 71.5529 15.5464 71.4865 15.4046C71.4143 15.2509 71.3786 15.0828 71.3822 14.9132C71.377 14.7444 71.4094 14.5766 71.477 14.4217C71.4915 14.3616 71.5252 14.3078 71.5732 14.2686C71.6211 14.2293 71.6807 14.2068 71.7427 14.2044H72.6914L72.957 12.8529C72.9867 12.7624 73.0374 12.6801 73.105 12.6128C73.1725 12.5455 73.2552 12.495 73.346 12.4654C73.5837 12.3681 73.8386 12.3199 74.0955 12.3237C74.2641 12.3184 74.4319 12.3473 74.5889 12.4087C74.7217 12.4654 74.7881 12.541 74.7881 12.645V14.2044H76.363C76.4768 14.2044 76.5527 14.2705 76.6191 14.4123C76.6833 14.5715 76.7155 14.7417 76.714 14.9132C76.7155 15.0817 76.6833 15.2487 76.6191 15.4046C76.5527 15.5464 76.4768 15.6125 76.363 15.6125H74.7881V18.0603C74.7661 18.3011 74.8299 18.542 74.9683 18.7407C75.0527 18.8198 75.1531 18.8801 75.2627 18.9176C75.3723 18.9551 75.4886 18.9689 75.604 18.9581C76.0366 18.9375 76.4643 18.858 76.8753 18.7218C77.0342 18.7907 77.1624 18.9151 77.2358 19.0715C77.3284 19.2497 77.3772 19.4473 77.3781 19.648C77.3925 19.7292 77.3925 19.8124 77.3781 19.8937C76.6567 20.2754 75.8517 20.4735 75.0348 20.4702C73.4725 20.4702 72.6914 19.7425 72.6914 18.2871Z" fill="white"/>
<path d="M78.232 18.9958L78.9151 18.8635V15.7354L77.9663 15.5936C77.9002 15.5815 77.8383 15.5525 77.7867 15.5094C77.7352 15.4663 77.6957 15.4107 77.6722 15.3479C77.5936 15.1961 77.5545 15.0272 77.5584 14.8565C77.5584 14.4217 77.6722 14.2044 77.881 14.2044H80.1484C80.2744 14.1858 80.403 14.1975 80.5235 14.2386C80.644 14.2797 80.7529 14.349 80.841 14.4406C80.9762 14.6926 81.0355 14.9781 81.0117 15.2628V18.8635L81.8087 18.9958C81.8697 19.0089 81.9263 19.0376 81.9728 19.079C82.0194 19.1204 82.0544 19.1732 82.0743 19.2321C82.1334 19.3892 82.1623 19.5559 82.1597 19.7236C82.1597 20.1488 82.0648 20.3567 81.8656 20.3567H78.1751C77.9758 20.3567 77.8715 20.1583 77.8715 19.7425C77.8715 19.3266 77.9853 19.0431 78.232 18.9958ZM78.8486 13.1742C78.6186 12.9409 78.4897 12.627 78.4897 12.3C78.4897 11.9731 78.6186 11.6591 78.8486 11.4259C79.0217 11.2556 79.2415 11.1401 79.4803 11.0939C79.7192 11.0478 79.9663 11.073 80.1908 11.1665C80.4153 11.2599 80.607 11.4174 80.7418 11.6191C80.8767 11.8208 80.9486 12.0577 80.9486 12.3C80.9486 12.5424 80.8767 12.7793 80.7418 12.981C80.607 13.1827 80.4153 13.3402 80.1908 13.4336C79.9663 13.5271 79.7192 13.5523 79.4803 13.5062C79.2415 13.46 79.0217 13.3445 78.8486 13.1742Z" fill="white"/>
<path d="M82.9661 19.9787V18.3816C82.9661 18.1737 83.1654 18.0697 83.5828 18.0697C83.7711 18.0696 83.9578 18.1049 84.1331 18.1737C84.2058 18.1923 84.2726 18.2289 84.3273 18.2801C84.3821 18.3313 84.4229 18.3955 84.4461 18.4666L84.6074 19.0809C84.9961 19.2095 85.4027 19.2765 85.8123 19.2794C86.4385 19.2794 86.761 19.166 86.761 18.9486C86.761 18.7312 86.6662 18.6935 86.4764 18.5706C86.0774 18.3553 85.6618 18.172 85.2336 18.0224C84.6187 17.8229 84.0507 17.5014 83.5638 17.0774C83.4034 16.9297 83.2764 16.7496 83.1913 16.5491C83.1063 16.3487 83.0651 16.1325 83.0705 15.915C83.0676 15.6306 83.1453 15.3511 83.2947 15.1087C83.444 14.8663 83.659 14.6708 83.9149 14.5446C84.6032 14.1932 85.3717 14.0271 86.1443 14.0626C87.0368 14.054 87.9245 14.1913 88.7723 14.469V16.0945C88.7678 16.1432 88.7493 16.1896 88.719 16.2282C88.6887 16.2667 88.6479 16.2958 88.6015 16.3119C88.4515 16.3742 88.2896 16.4032 88.1272 16.3969C87.9424 16.4012 87.7587 16.3691 87.5864 16.3024C87.5176 16.2804 87.455 16.2423 87.4038 16.1913C87.3527 16.1404 87.3145 16.078 87.2923 16.0094L87.131 15.3763C86.8531 15.2977 86.566 15.2564 86.2772 15.2534C86.0242 15.2332 85.7707 15.2857 85.5467 15.4046C85.4845 15.4346 85.431 15.4798 85.3912 15.536C85.3514 15.5922 85.3265 15.6576 85.319 15.7259C85.3191 15.7999 85.3395 15.8724 85.3779 15.9357C85.4164 15.999 85.4714 16.0507 85.5372 16.0851C85.8778 16.2484 86.2298 16.3873 86.5903 16.5009C87.2793 16.6878 87.9242 17.009 88.4877 17.446C88.655 17.5917 88.7884 17.7721 88.8786 17.9745C88.9687 18.1769 89.0134 18.3964 89.0095 18.6178C89.0095 19.8181 87.9754 20.4229 85.9072 20.4229C84.9064 20.4812 83.9045 20.3299 82.9661 19.9787Z" fill="white"/>
</svg>
