<svg width="122" height="44" viewBox="0 0 122 44" fill="none" xmlns="http://www.w3.org/2000/svg">
<path d="M9.24657 27.7956H11.3274V16.2044H9.24657V27.7956ZM13.9674 18.2965H20.873V16.2173H13.9674V18.2965ZM13.9674 23.0396H20.873V20.9604H13.9674V23.0396ZM30.4057 16.2173H23.5651V18.2965H28.3249V27.7956H30.4057V16.2173ZM33.0978 18.2965H35.1786V16.2173H33.0978V18.2965ZM22.0565 6.8775e-06C26.4072 0.0179816 30.6551 1.32351 34.2639 3.7518C37.8726 6.18009 40.6805 9.62227 42.333 13.6438C43.9855 17.6653 44.4085 22.0859 43.5487 26.3475C42.6889 30.609 40.5848 34.5206 37.502 37.5882C34.4192 40.6559 30.496 42.7421 26.2275 43.5837C21.959 44.4252 17.5367 43.9842 13.5188 42.3165C9.50098 40.6487 6.06768 37.8289 3.65236 34.213C1.23705 30.5971 -0.05198 26.3473 -0.0520172 22C-0.052042 19.1032 0.520455 16.235 1.63263 13.5599C2.7448 10.8848 4.37474 8.45545 6.42891 6.41137C8.48307 4.36729 10.921 2.74869 13.6028 1.64845C16.2846 0.548214 19.1575 -0.0119702 22.0565 6.8775e-06Z" fill="white"/>
<path d="M58.5616 26.1193L59.8621 25.9374V18.3355H57.9373L57.6642 20.0898C57.6642 20.2457 57.5212 20.3627 57.2871 20.4536C57.0437 20.5334 56.7889 20.5729 56.5328 20.5706C55.9086 20.5706 55.6094 20.4406 55.6094 20.1547V16.1654H67.1189V20.1547C67.1189 20.4406 66.8067 20.5706 66.1825 20.5706C65.9264 20.572 65.6718 20.5325 65.4282 20.4536C65.2071 20.3627 65.0771 20.2457 65.0511 20.0898L64.778 18.3355H62.8532V25.9374L64.1537 26.1193C64.239 26.1333 64.3186 26.1713 64.3831 26.2288C64.4476 26.2864 64.4943 26.3611 64.5179 26.4442C64.6094 26.6574 64.6538 26.8879 64.6479 27.1199C64.6479 27.7047 64.5179 27.9905 64.2448 27.9905H58.4705C58.1844 27.9905 58.0414 27.7177 58.0414 27.1459C58.034 26.9096 58.0784 26.6746 58.1714 26.4572C58.1961 26.3688 58.2463 26.2897 58.3157 26.2297C58.385 26.1696 58.4706 26.1312 58.5616 26.1193Z" fill="white"/>
<path d="M69.0956 26.1193L70.1751 25.9374V18.2316L68.8746 18.0366C68.7876 18.0216 68.7069 17.9817 68.6423 17.9217C68.5776 17.8617 68.5318 17.7843 68.5104 17.6988C68.4174 17.4814 68.373 17.2463 68.3804 17.0101C68.3804 16.4513 68.5234 16.1654 68.8095 16.1654H78.6803V19.8559C78.6803 20.1288 78.3812 20.2717 77.783 20.2717C77.5172 20.275 77.253 20.2311 77.0027 20.1418C76.7426 20.0638 76.5995 19.9469 76.5865 19.7779L76.3394 18.3355H73.1662V21.1034H75.9233C76.0663 21.1034 76.1834 21.2073 76.2744 21.4282C76.3563 21.6754 76.3959 21.9346 76.3914 22.1949C76.3969 22.4553 76.3573 22.7147 76.2744 22.9616C76.1877 23.1695 76.0707 23.2735 75.9233 23.2735H73.1662V25.9374L74.4667 26.1193C74.552 26.1333 74.6316 26.1713 74.6961 26.2288C74.7605 26.2864 74.8073 26.3611 74.8309 26.4442C74.9224 26.6574 74.9667 26.8879 74.9609 27.1199C74.9609 27.7047 74.8308 27.9905 74.5577 27.9905H69.0826C68.7965 27.9905 68.6535 27.7177 68.6535 27.1459C68.6461 26.9096 68.6905 26.6746 68.7835 26.4572C68.802 26.3788 68.8405 26.3065 68.8952 26.2473C68.9499 26.1881 69.0189 26.144 69.0956 26.1193Z" fill="white"/>
<path d="M79.5647 27.0679C78.707 26.2039 78.2257 25.0362 78.2257 23.8193C78.2257 22.6023 78.707 21.4346 79.5647 20.5706C80.5369 19.8203 81.7306 19.4134 82.959 19.4134C84.1874 19.4134 85.3811 19.8203 86.3533 20.5706C87.211 21.4346 87.6923 22.6023 87.6923 23.8193C87.6923 25.0362 87.211 26.2039 86.3533 27.0679C85.3775 27.8099 84.1851 28.2116 82.959 28.2116C81.7328 28.2116 80.5404 27.8099 79.5647 27.0679ZM81.6455 25.4956C81.7871 25.7101 81.9804 25.8855 82.2077 26.0059C82.4349 26.1262 82.6888 26.1876 82.946 26.1843C83.2029 26.1864 83.4563 26.1245 83.6834 26.0043C83.9104 25.8841 84.104 25.7092 84.2465 25.4956C84.572 25.0027 84.7398 24.4226 84.7276 23.8323C84.7392 23.2379 84.5715 22.6538 84.2465 22.1559C84.104 21.9423 83.9104 21.7675 83.6834 21.6472C83.4563 21.527 83.2029 21.4651 82.946 21.4672C82.6888 21.4639 82.4349 21.5253 82.2077 21.6456C81.9804 21.766 81.7871 21.9414 81.6455 22.1559C81.3143 22.651 81.146 23.2371 81.1643 23.8323C81.1596 24.4014 81.3273 24.9585 81.6455 25.4306V25.4956Z" fill="white"/>
<path d="M89.2664 26.1193L90.2158 25.9374V21.6362L88.9153 21.4413C88.8246 21.4246 88.7397 21.3847 88.6691 21.3255C88.5984 21.2662 88.5443 21.1897 88.5121 21.1034C88.4088 20.8936 88.3597 20.6613 88.3691 20.4277C88.3691 19.8299 88.5121 19.531 88.7982 19.531H91.7503C92.5957 19.531 93.0508 19.9079 93.0508 20.6616C93.3845 20.2501 93.807 19.9195 94.2868 19.6944C94.7665 19.4694 95.291 19.3558 95.8209 19.3621C96.2583 19.3623 96.6944 19.4102 97.1214 19.505C97.2449 19.7781 97.3028 20.0763 97.2905 20.3757C97.319 20.6658 97.2824 20.9586 97.1834 21.2329C97.0844 21.5071 96.9255 21.7559 96.7183 21.961L95.2097 21.6232C94.6752 21.5868 94.1407 21.6945 93.6621 21.935C93.324 22.1429 93.1549 22.6107 93.1549 23.3125V25.9114L94.2343 26.0933C94.318 26.1114 94.3955 26.1508 94.4593 26.2077C94.5231 26.2647 94.5711 26.3372 94.5984 26.4182C94.6794 26.6342 94.7191 26.8633 94.7155 27.0939C94.7155 27.6787 94.5854 27.9646 94.3123 27.9646H89.2664C88.9803 27.9646 88.8372 27.6917 88.8372 27.1199C88.8372 26.5482 88.9413 26.1843 89.2664 26.1193Z" fill="white"/>
<path d="M99.6444 25.1447V21.4672H98.3439C98.2008 21.4672 98.0838 21.3763 97.9928 21.1813C97.8938 20.97 97.8449 20.7389 97.8497 20.5056C97.8426 20.2736 97.887 20.0428 97.9798 19.8299C97.9995 19.7472 98.0458 19.6733 98.1116 19.6193C98.1773 19.5654 98.2589 19.5344 98.3439 19.531H99.6444L100.009 17.6728C100.049 17.5483 100.119 17.4352 100.211 17.3426C100.304 17.25 100.417 17.1806 100.542 17.14C100.867 17.0062 101.217 16.9399 101.569 16.9451C101.8 16.9378 102.03 16.9776 102.245 17.062C102.427 17.14 102.518 17.2439 102.518 17.3869V19.531H104.677C104.833 19.531 104.937 19.622 105.028 19.8169C105.116 20.0358 105.161 20.2698 105.159 20.5056C105.161 20.7373 105.116 20.967 105.028 21.1813C104.937 21.3763 104.833 21.4672 104.677 21.4672H102.518V24.8328C102.488 25.164 102.576 25.4952 102.766 25.7685C102.881 25.8773 103.019 25.9602 103.169 26.0117C103.319 26.0633 103.479 26.0822 103.637 26.0674C104.23 26.0391 104.816 25.9298 105.38 25.7425C105.597 25.8373 105.773 26.0082 105.874 26.2233C106.001 26.4683 106.068 26.74 106.069 27.0159C106.089 27.1277 106.089 27.2421 106.069 27.3538C105.08 27.8787 103.976 28.151 102.857 28.1465C100.715 28.1465 99.6444 27.1459 99.6444 25.1447Z" fill="white"/>
<path d="M107.239 26.1193L108.176 25.9374V21.6361L106.875 21.4412C106.784 21.4246 106.7 21.3847 106.629 21.3254C106.558 21.2662 106.504 21.1897 106.472 21.1034C106.364 20.8947 106.311 20.6624 106.316 20.4276C106.316 19.8299 106.472 19.531 106.758 19.531H109.866C110.039 19.5054 110.215 19.5215 110.381 19.578C110.546 19.6346 110.695 19.7299 110.816 19.8559C111.001 20.2023 111.082 20.5949 111.05 20.9864V25.9374L112.142 26.1193C112.226 26.1373 112.303 26.1767 112.367 26.2337C112.431 26.2906 112.479 26.3631 112.506 26.4442C112.587 26.6601 112.627 26.8893 112.623 27.1199C112.623 27.7047 112.493 27.9905 112.22 27.9905H107.161C106.888 27.9905 106.745 27.7176 106.745 27.1459C106.745 26.5741 106.901 26.1843 107.239 26.1193ZM108.085 18.1146C107.769 17.7938 107.593 17.3622 107.593 16.9126C107.593 16.4629 107.769 16.0313 108.085 15.7106C108.322 15.4764 108.623 15.3176 108.951 15.2542C109.278 15.1907 109.617 15.2254 109.924 15.3539C110.232 15.4824 110.495 15.6989 110.68 15.9762C110.865 16.2536 110.963 16.5794 110.963 16.9126C110.963 17.2458 110.865 17.5716 110.68 17.8489C110.495 18.1262 110.232 18.3427 109.924 18.4712C109.617 18.5997 109.278 18.6344 108.951 18.571C108.623 18.5075 108.322 18.3487 108.085 18.1146Z" fill="white"/>
<path d="M113.729 27.4708V25.2747C113.729 24.9888 114.002 24.8458 114.574 24.8458C114.832 24.8457 115.088 24.8942 115.328 24.9888C115.428 25.0144 115.52 25.0647 115.595 25.1351C115.67 25.2056 115.726 25.2938 115.758 25.3916L115.979 26.2363C116.512 26.4131 117.069 26.5052 117.63 26.5092C118.489 26.5092 118.931 26.3532 118.931 26.0543C118.931 25.7555 118.801 25.7035 118.541 25.5346C117.994 25.2385 117.424 24.9864 116.837 24.7809C115.994 24.5065 115.216 24.0645 114.548 23.4814C114.328 23.2783 114.154 23.0307 114.038 22.7551C113.921 22.4795 113.864 22.1822 113.872 21.8831C113.868 21.492 113.974 21.1078 114.179 20.7745C114.384 20.4412 114.679 20.1723 115.029 19.9988C115.973 19.5157 117.026 19.2872 118.086 19.3361C119.309 19.3242 120.526 19.513 121.688 19.8949V22.13C121.682 22.197 121.656 22.2607 121.615 22.3137C121.573 22.3667 121.517 22.4067 121.454 22.4288C121.248 22.5145 121.026 22.5544 120.804 22.5458C120.55 22.5516 120.298 22.5075 120.062 22.4158C119.968 22.3855 119.882 22.3331 119.812 22.2631C119.742 22.193 119.689 22.1073 119.659 22.013L119.438 21.1424C119.057 21.0344 118.663 20.9776 118.268 20.9734C117.921 20.9457 117.573 21.0179 117.266 21.1813C117.181 21.2226 117.108 21.2847 117.053 21.362C116.998 21.4393 116.964 21.5291 116.954 21.6232C116.954 21.7249 116.982 21.8246 117.035 21.9116C117.088 21.9986 117.163 22.0696 117.253 22.117C117.72 22.3415 118.203 22.5326 118.697 22.6887C119.641 22.9457 120.525 23.3874 121.298 23.9882C121.527 24.1886 121.71 24.4366 121.834 24.7149C121.957 24.9932 122.018 25.2951 122.013 25.5995C122.013 27.2498 120.595 28.0815 117.76 28.0815C116.389 28.1617 115.015 27.9536 113.729 27.4708Z" fill="white"/>
</svg>
